# 3ds Max Wavefront OBJ Exporter v0.97b - (c)2007 guruware
# File Created: 14.12.2013 04:38:30

mtllib one.mtl

#
# object Text001
#

v  1.180000 3.220000 -1.025000
v  0.670938 3.220000 -1.025000
v  0.606442 3.100714 -1.025000
v  0.530185 2.980357 -1.025000
v  0.442169 2.858929 -1.025000
v  0.342392 2.736428 -1.025000
v  0.230855 2.612858 -1.025000
v  0.107558 2.488215 -1.025000
v  -0.027500 2.362500 -1.025000
v  -0.171824 2.238929 -1.025000
v  -0.322921 2.120714 -1.025000
v  -0.480791 2.007857 -1.025000
v  -0.645433 1.900357 -1.025000
v  -0.816850 1.798215 -1.025000
v  -0.995038 1.701429 -1.025000
v  -1.180000 1.610000 -1.025000
v  -1.180000 0.848750 -1.025000
v  -1.073401 0.890268 -1.025000
v  -0.962978 0.937321 -1.025000
v  -0.848732 0.989911 -1.025000
v  -0.730663 1.048036 -1.025000
v  -0.608771 1.111697 -1.025000
v  -0.483055 1.180893 -1.025000
v  -0.353516 1.255625 -1.025000
v  -0.225670 1.333126 -1.025000
v  -0.105033 1.410625 -1.025000
v  0.008393 1.488125 -1.025000
v  0.114609 1.565625 -1.025000
v  0.213616 1.643126 -1.025000
v  0.305413 1.720625 -1.025000
v  0.390000 1.798125 -1.025000
v  0.390000 -3.220000 -1.025000
v  1.180000 -3.220000 -1.025000
v  1.180000 3.220000 1.025000
v  0.670938 3.220000 1.025000
v  0.606442 3.100714 1.025000
v  0.530185 2.980357 1.025000
v  0.442169 2.858929 1.025000
v  0.342392 2.736428 1.025000
v  0.230855 2.612858 1.025000
v  0.107558 2.488215 1.025000
v  -0.027500 2.362500 1.025000
v  -0.171824 2.238929 1.025000
v  -0.322921 2.120714 1.025000
v  -0.480791 2.007857 1.025000
v  -0.645433 1.900357 1.025000
v  -0.816850 1.798215 1.025000
v  -0.995038 1.701429 1.025000
v  -1.180000 1.610000 1.025000
v  -1.180000 0.848750 1.025000
v  -1.073401 0.890268 1.025000
v  -0.962978 0.937321 1.025000
v  -0.848732 0.989911 1.025000
v  -0.730663 1.048036 1.025000
v  -0.608771 1.111697 1.025000
v  -0.483055 1.180893 1.025000
v  -0.353516 1.255625 1.025000
v  -0.225670 1.333126 1.025000
v  -0.105033 1.410625 1.025000
v  0.008393 1.488125 1.025000
v  0.114609 1.565625 1.025000
v  0.213616 1.643126 1.025000
v  0.305413 1.720625 1.025000
v  0.390000 1.798125 1.025000
v  0.390000 -3.220000 1.025000
v  1.180000 -3.220000 1.025000
# 66 vertices

vn 0.000000 1.000000 0.000000
vn 0.000000 1.000000 0.000000
vn 0.000000 1.000000 0.000000
vn 0.000000 1.000000 0.000000
vn 0.000000 1.000000 0.000000
vn 0.000000 1.000000 0.000000
vn -0.879653 0.475616 0.000000
vn -0.862703 0.505711 0.000000
vn -0.862703 0.505711 0.000000
vn -0.879653 0.475616 0.000000
vn -0.862703 0.505711 0.000000
vn -0.879653 0.475616 0.000000
vn -0.862703 0.505711 0.000000
vn -0.827600 0.561318 0.000000
vn -0.827600 0.561318 0.000000
vn -0.862703 0.505711 0.000000
vn -0.827600 0.561318 0.000000
vn -0.862703 0.505711 0.000000
vn -0.827600 0.561318 0.000000
vn -0.792826 0.609448 0.000000
vn -0.792826 0.609448 0.000000
vn -0.827600 0.561318 0.000000
vn -0.792826 0.609448 0.000000
vn -0.827600 0.561318 0.000000
vn -0.792826 0.609448 0.000000
vn -0.759085 0.650991 0.000000
vn -0.759085 0.650991 0.000000
vn -0.792826 0.609448 0.000000
vn -0.759085 0.650991 0.000000
vn -0.792826 0.609448 0.000000
vn -0.759085 0.650991 0.000000
vn -0.726820 0.686827 0.000000
vn -0.726821 0.686827 0.000000
vn -0.759085 0.650991 0.000000
vn -0.726821 0.686827 0.000000
vn -0.759085 0.650991 0.000000
vn -0.726820 0.686827 0.000000
vn -0.696283 0.717767 0.000000
vn -0.696283 0.717767 0.000000
vn -0.726820 0.686827 0.000000
vn -0.696283 0.717767 0.000000
vn -0.726821 0.686827 0.000000
vn -0.696283 0.717767 0.000000
vn -0.666002 0.745950 0.000000
vn -0.666002 0.745950 0.000000
vn -0.696283 0.717767 0.000000
vn -0.666002 0.745950 0.000000
vn -0.696283 0.717767 0.000000
vn -0.666002 0.745950 0.000000
vn -0.633443 0.773790 0.000000
vn -0.633443 0.773790 0.000000
vn -0.666002 0.745950 0.000000
vn -0.633443 0.773790 0.000000
vn -0.666002 0.745950 0.000000
vn -0.633443 0.773790 0.000000
vn -0.599015 0.800738 0.000000
vn -0.599015 0.800738 0.000000
vn -0.633443 0.773790 0.000000
vn -0.599015 0.800738 0.000000
vn -0.633443 0.773790 0.000000
vn -0.599015 0.800738 0.000000
vn -0.564258 0.825598 0.000000
vn -0.564258 0.825598 0.000000
vn -0.599015 0.800738 0.000000
vn -0.564258 0.825598 0.000000
vn -0.599015 0.800738 0.000000
vn -0.564258 0.825598 0.000000
vn -0.529411 0.848366 0.000000
vn -0.529411 0.848366 0.000000
vn -0.564258 0.825598 0.000000
vn -0.529411 0.848366 0.000000
vn -0.564258 0.825598 0.000000
vn -0.529411 0.848366 0.000000
vn -0.494693 0.869068 0.000000
vn -0.494693 0.869068 0.000000
vn -0.529411 0.848366 0.000000
vn -0.494693 0.869068 0.000000
vn -0.529411 0.848366 0.000000
vn -0.494693 0.869068 0.000000
vn -0.460301 0.887763 0.000000
vn -0.460301 0.887763 0.000000
vn -0.494693 0.869068 0.000000
vn -0.460301 0.887763 0.000000
vn -0.494693 0.869068 0.000000
vn -0.460301 0.887763 0.000000
vn -0.443130 0.896458 0.000000
vn -0.443130 0.896458 0.000000
vn -0.460301 0.887763 0.000000
vn -0.443130 0.896458 0.000000
vn -0.460301 0.887763 0.000000
vn -1.000000 0.000000 -0.000000
vn -1.000000 0.000000 -0.000000
vn -1.000000 0.000000 -0.000000
vn -1.000000 0.000000 -0.000000
vn -1.000000 0.000000 -0.000000
vn -1.000000 0.000000 -0.000000
vn 0.362923 -0.931819 -0.000000
vn 0.377514 -0.926004 -0.000000
vn 0.377514 -0.926004 -0.000000
vn 0.362923 -0.931819 -0.000000
vn 0.377514 -0.926004 -0.000000
vn 0.362923 -0.931819 -0.000000
vn 0.377514 -0.926004 -0.000000
vn 0.405121 -0.914263 -0.000000
vn 0.405121 -0.914263 -0.000000
vn 0.377514 -0.926004 -0.000000
vn 0.405121 -0.914263 -0.000000
vn 0.377514 -0.926004 -0.000000
vn 0.405121 -0.914263 -0.000000
vn 0.429949 -0.902853 -0.000000
vn 0.429949 -0.902853 -0.000000
vn 0.405121 -0.914263 -0.000000
vn 0.429949 -0.902853 -0.000000
vn 0.405121 -0.914263 -0.000000
vn 0.429949 -0.902853 -0.000000
vn 0.452339 -0.891846 -0.000000
vn 0.452339 -0.891846 -0.000000
vn 0.429949 -0.902853 -0.000000
vn 0.452339 -0.891846 -0.000000
vn 0.429949 -0.902853 -0.000000
vn 0.452339 -0.891846 -0.000000
vn 0.472595 -0.881280 -0.000000
vn 0.472595 -0.881280 -0.000000
vn 0.452339 -0.891846 -0.000000
vn 0.472595 -0.881280 -0.000000
vn 0.452339 -0.891846 -0.000000
vn 0.472595 -0.881280 -0.000000
vn 0.490980 -0.871171 -0.000000
vn 0.490980 -0.871171 -0.000000
vn 0.472595 -0.881280 -0.000000
vn 0.490980 -0.871171 -0.000000
vn 0.472595 -0.881280 -0.000000
vn 0.490980 -0.871171 -0.000000
vn 0.509082 -0.860718 -0.000000
vn 0.509082 -0.860718 -0.000000
vn 0.490980 -0.871171 -0.000000
vn 0.509082 -0.860718 -0.000000
vn 0.490980 -0.871171 -0.000000
vn 0.509082 -0.860718 -0.000000
vn 0.529490 -0.848316 -0.000000
vn 0.529490 -0.848316 -0.000000
vn 0.509082 -0.860718 -0.000000
vn 0.529490 -0.848316 -0.000000
vn 0.509082 -0.860718 -0.000000
vn 0.529490 -0.848316 -0.000000
vn 0.552381 -0.833592 -0.000000
vn 0.552381 -0.833592 -0.000000
vn 0.529490 -0.848316 -0.000000
vn 0.552381 -0.833592 -0.000000
vn 0.529490 -0.848316 -0.000000
vn 0.552381 -0.833592 -0.000000
vn 0.576856 -0.816845 -0.000000
vn 0.576856 -0.816846 -0.000000
vn 0.552381 -0.833592 -0.000000
vn 0.576856 -0.816846 -0.000000
vn 0.552381 -0.833592 -0.000000
vn 0.576856 -0.816845 -0.000000
vn 0.602993 -0.797747 -0.000000
vn 0.602993 -0.797746 -0.000000
vn 0.576856 -0.816845 -0.000000
vn 0.602993 -0.797746 -0.000000
vn 0.576856 -0.816846 -0.000000
vn 0.602993 -0.797747 -0.000000
vn 0.630851 -0.775904 -0.000000
vn 0.630851 -0.775904 -0.000000
vn 0.602993 -0.797747 -0.000000
vn 0.630851 -0.775904 -0.000000
vn 0.602993 -0.797746 -0.000000
vn 0.630851 -0.775904 -0.000000
vn 0.660455 -0.750865 -0.000000
vn 0.660455 -0.750866 -0.000000
vn 0.630851 -0.775904 -0.000000
vn 0.660455 -0.750866 -0.000000
vn 0.630851 -0.775904 -0.000000
vn 0.660455 -0.750865 -0.000000
vn 0.675543 -0.737320 -0.000000
vn 0.675543 -0.737320 -0.000000
vn 0.660455 -0.750865 -0.000000
vn 0.675543 -0.737320 -0.000000
vn 0.660455 -0.750866 -0.000000
vn -1.000000 0.000000 -0.000000
vn -1.000000 0.000000 -0.000000
vn -1.000000 0.000000 -0.000000
vn -1.000000 0.000000 -0.000000
vn -1.000000 0.000000 -0.000000
vn -1.000000 0.000000 -0.000000
vn 0.000000 -1.000000 -0.000000
vn 0.000000 -1.000000 -0.000000
vn 0.000000 -1.000000 -0.000000
vn 0.000000 -1.000000 -0.000000
vn 0.000000 -1.000000 -0.000000
vn 0.000000 -1.000000 -0.000000
vn 1.000000 0.000000 -0.000000
vn 1.000000 0.000000 -0.000000
vn 1.000000 0.000000 -0.000000
vn 1.000000 0.000000 -0.000000
vn 1.000000 0.000000 -0.000000
vn 1.000000 0.000000 -0.000000
vn 0.000000 0.000000 -1.000000
vn 0.000000 0.000000 -1.000000
vn 0.000000 0.000000 -1.000000
vn 0.000000 0.000000 -1.000000
vn 0.000000 0.000000 -1.000000
vn 0.000000 0.000000 -1.000000
vn 0.000000 0.000000 -1.000000
vn 0.000000 0.000000 -1.000000
vn 0.000000 0.000000 -1.000000
vn 0.000000 0.000000 -1.000000
vn 0.000000 0.000000 -1.000000
vn 0.000000 0.000000 -1.000000
vn 0.000000 0.000000 -1.000000
vn 0.000000 0.000000 -1.000000
vn 0.000000 0.000000 -1.000000
vn 0.000000 0.000000 -1.000000
vn 0.000000 0.000000 -1.000000
vn 0.000000 0.000000 -1.000000
vn 0.000000 0.000000 -1.000000
vn 0.000000 0.000000 -1.000000
vn 0.000000 0.000000 -1.000000
vn 0.000000 0.000000 -1.000000
vn 0.000000 0.000000 -1.000000
vn 0.000000 0.000000 -1.000000
vn 0.000000 0.000000 -1.000000
vn 0.000000 0.000000 -1.000000
vn 0.000000 0.000000 -1.000000
vn 0.000000 0.000000 -1.000000
vn 0.000000 0.000000 -1.000000
vn 0.000000 0.000000 -1.000000
vn 0.000000 0.000000 -1.000000
vn 0.000000 0.000000 -1.000000
vn 0.000000 0.000000 -1.000000
vn 0.000000 0.000000 -1.000000
vn 0.000000 0.000000 -1.000000
vn 0.000000 0.000000 -1.000000
vn 0.000000 0.000000 -1.000000
vn 0.000000 0.000000 -1.000000
vn 0.000000 0.000000 -1.000000
vn 0.000000 0.000000 -1.000000
vn 0.000000 0.000000 -1.000000
vn 0.000000 0.000000 -1.000000
vn 0.000000 0.000000 -1.000000
vn 0.000000 0.000000 -1.000000
vn 0.000000 0.000000 -1.000000
vn 0.000000 0.000000 -1.000000
vn 0.000000 0.000000 -1.000000
vn 0.000000 0.000000 -1.000000
vn 0.000000 0.000000 -1.000000
vn 0.000000 0.000000 -1.000000
vn 0.000000 0.000000 -1.000000
vn 0.000000 0.000000 -1.000000
vn 0.000000 0.000000 -1.000000
vn 0.000000 0.000000 -1.000000
vn 0.000000 0.000000 -1.000000
vn 0.000000 0.000000 -1.000000
vn 0.000000 0.000000 -1.000000
vn 0.000000 0.000000 -1.000000
vn 0.000000 0.000000 -1.000000
vn 0.000000 0.000000 -1.000000
vn 0.000000 0.000000 -1.000000
vn 0.000000 0.000000 -1.000000
vn 0.000000 0.000000 -1.000000
vn 0.000000 0.000000 -1.000000
vn 0.000000 0.000000 -1.000000
vn 0.000000 0.000000 -1.000000
vn 0.000000 0.000000 -1.000000
vn 0.000000 0.000000 -1.000000
vn 0.000000 0.000000 -1.000000
vn 0.000000 0.000000 -1.000000
vn 0.000000 0.000000 -1.000000
vn 0.000000 0.000000 -1.000000
vn 0.000000 0.000000 -1.000000
vn 0.000000 0.000000 -1.000000
vn 0.000000 0.000000 -1.000000
vn 0.000000 0.000000 -1.000000
vn 0.000000 0.000000 -1.000000
vn 0.000000 0.000000 -1.000000
vn 0.000000 0.000000 -1.000000
vn 0.000000 0.000000 -1.000000
vn 0.000000 0.000000 -1.000000
vn 0.000000 0.000000 -1.000000
vn 0.000000 0.000000 -1.000000
vn 0.000000 0.000000 -1.000000
vn 0.000000 0.000000 -1.000000
vn 0.000000 0.000000 -1.000000
vn 0.000000 0.000000 -1.000000
vn 0.000000 0.000000 -1.000000
vn 0.000000 0.000000 -1.000000
vn 0.000000 0.000000 -1.000000
vn 0.000000 0.000000 -1.000000
vn 0.000000 0.000000 -1.000000
vn 0.000000 0.000000 -1.000000
vn 0.000000 -0.000000 1.000000
vn 0.000000 -0.000000 1.000000
vn 0.000000 -0.000000 1.000000
vn 0.000000 -0.000000 1.000000
vn 0.000000 -0.000000 1.000000
vn 0.000000 -0.000000 1.000000
vn 0.000000 -0.000000 1.000000
vn 0.000000 -0.000000 1.000000
vn 0.000000 -0.000000 1.000000
vn 0.000000 -0.000000 1.000000
vn 0.000000 -0.000000 1.000000
vn 0.000000 -0.000000 1.000000
vn 0.000000 -0.000000 1.000000
vn 0.000000 -0.000000 1.000000
vn 0.000000 -0.000000 1.000000
vn 0.000000 -0.000000 1.000000
vn 0.000000 -0.000000 1.000000
vn 0.000000 -0.000000 1.000000
vn 0.000000 -0.000000 1.000000
vn 0.000000 -0.000000 1.000000
vn 0.000000 -0.000000 1.000000
vn 0.000000 -0.000000 1.000000
vn 0.000000 -0.000000 1.000000
vn 0.000000 -0.000000 1.000000
vn 0.000000 -0.000000 1.000000
vn 0.000000 -0.000000 1.000000
vn 0.000000 -0.000000 1.000000
vn 0.000000 -0.000000 1.000000
vn 0.000000 -0.000000 1.000000
vn 0.000000 -0.000000 1.000000
vn 0.000000 -0.000000 1.000000
vn 0.000000 -0.000000 1.000000
vn 0.000000 -0.000000 1.000000
vn 0.000000 -0.000000 1.000000
vn 0.000000 -0.000000 1.000000
vn 0.000000 -0.000000 1.000000
vn 0.000000 -0.000000 1.000000
vn 0.000000 -0.000000 1.000000
vn 0.000000 -0.000000 1.000000
vn 0.000000 -0.000000 1.000000
vn 0.000000 -0.000000 1.000000
vn 0.000000 -0.000000 1.000000
vn 0.000000 -0.000000 1.000000
vn 0.000000 -0.000000 1.000000
vn 0.000000 -0.000000 1.000000
vn 0.000000 -0.000000 1.000000
vn 0.000000 -0.000000 1.000000
vn 0.000000 -0.000000 1.000000
vn 0.000000 -0.000000 1.000000
vn 0.000000 -0.000000 1.000000
vn 0.000000 -0.000000 1.000000
vn 0.000000 -0.000000 1.000000
vn 0.000000 -0.000000 1.000000
vn 0.000000 -0.000000 1.000000
vn 0.000000 -0.000000 1.000000
vn 0.000000 -0.000000 1.000000
vn 0.000000 -0.000000 1.000000
vn 0.000000 -0.000000 1.000000
vn 0.000000 -0.000000 1.000000
vn 0.000000 -0.000000 1.000000
vn 0.000000 -0.000000 1.000000
vn 0.000000 -0.000000 1.000000
vn 0.000000 -0.000000 1.000000
vn 0.000000 -0.000000 1.000000
vn 0.000000 -0.000000 1.000000
vn 0.000000 -0.000000 1.000000
vn 0.000000 -0.000000 1.000000
vn 0.000000 -0.000000 1.000000
vn 0.000000 -0.000000 1.000000
vn 0.000000 -0.000000 1.000000
vn 0.000000 -0.000000 1.000000
vn 0.000000 -0.000000 1.000000
vn 0.000000 -0.000000 1.000000
vn 0.000000 -0.000000 1.000000
vn 0.000000 -0.000000 1.000000
vn 0.000000 -0.000000 1.000000
vn 0.000000 -0.000000 1.000000
vn 0.000000 -0.000000 1.000000
vn 0.000000 -0.000000 1.000000
vn 0.000000 -0.000000 1.000000
vn 0.000000 -0.000000 1.000000
vn 0.000000 -0.000000 1.000000
vn 0.000000 -0.000000 1.000000
vn 0.000000 -0.000000 1.000000
vn 0.000000 -0.000000 1.000000
vn 0.000000 -0.000000 1.000000
vn 0.000000 -0.000000 1.000000
vn 0.000000 -0.000000 1.000000
vn 0.000000 -0.000000 1.000000
vn 0.000000 -0.000000 1.000000
vn 0.000000 -0.000000 1.000000
vn 0.000000 -0.000000 1.000000
vn 0.000000 -0.000000 1.000000
# 384 vertex normals

vt 0.000000 0.000000 0.000000
vt 0.028508 0.000000 0.000000
vt 0.036102 0.000000 0.000000
vt 0.044082 0.000000 0.000000
vt 0.052480 0.000000 0.000000
vt 0.061328 0.000000 0.000000
vt 0.070650 0.000000 0.000000
vt 0.080469 0.000000 0.000000
vt 0.090802 0.000000 0.000000
vt 0.101442 0.000000 0.000000
vt 0.112185 0.000000 0.000000
vt 0.123053 0.000000 0.000000
vt 0.134065 0.000000 0.000000
vt 0.145239 0.000000 0.000000
vt 0.156595 0.000000 0.000000
vt 0.168150 0.000000 0.000000
vt 0.210781 0.000000 0.000000
vt 0.217187 0.000000 0.000000
vt 0.223909 0.000000 0.000000
vt 0.230952 0.000000 0.000000
vt 0.238322 0.000000 0.000000
vt 0.246023 0.000000 0.000000
vt 0.254060 0.000000 0.000000
vt 0.262435 0.000000 0.000000
vt 0.270807 0.000000 0.000000
vt 0.278837 0.000000 0.000000
vt 0.286530 0.000000 0.000000
vt 0.293893 0.000000 0.000000
vt 0.300934 0.000000 0.000000
vt 0.307662 0.000000 0.000000
vt 0.314087 0.000000 0.000000
vt 0.595109 0.000000 0.000000
vt 0.639350 0.000000 0.000000
vt 1.000000 0.000000 0.000000
vt 0.000000 1.000000 0.000000
vt 0.028508 1.000000 0.000000
vt 0.036102 1.000000 0.000000
vt 0.044082 1.000000 0.000000
vt 0.052480 1.000000 0.000000
vt 0.061328 1.000000 0.000000
vt 0.070650 1.000000 0.000000
vt 0.080469 1.000000 0.000000
vt 0.090802 1.000000 0.000000
vt 0.101442 1.000000 0.000000
vt 0.112185 1.000000 0.000000
vt 0.123053 1.000000 0.000000
vt 0.134065 1.000000 0.000000
vt 0.145239 1.000000 0.000000
vt 0.156595 1.000000 0.000000
vt 0.168150 1.000000 0.000000
vt 0.210781 1.000000 0.000000
vt 0.217187 1.000000 0.000000
vt 0.223909 1.000000 0.000000
vt 0.230952 1.000000 0.000000
vt 0.238322 1.000000 0.000000
vt 0.246023 1.000000 0.000000
vt 0.254060 1.000000 0.000000
vt 0.262435 1.000000 0.000000
vt 0.270807 1.000000 0.000000
vt 0.278837 1.000000 0.000000
vt 0.286530 1.000000 0.000000
vt 0.293893 1.000000 0.000000
vt 0.300934 1.000000 0.000000
vt 0.307662 1.000000 0.000000
vt 0.314087 1.000000 0.000000
vt 0.595109 1.000000 0.000000
vt 0.639350 1.000000 0.000000
vt 1.000000 1.000000 0.000000
vt 1.000000 1.000000 0.000000
vt 0.784296 1.000000 0.000000
vt 0.756967 0.981477 0.000000
vt 0.724655 0.962788 0.000000
vt 0.687360 0.943933 0.000000
vt 0.645081 0.924911 0.000000
vt 0.597820 0.905723 0.000000
vt 0.545575 0.886369 0.000000
vt 0.488348 0.866848 0.000000
vt 0.427193 0.847660 0.000000
vt 0.363169 0.829303 0.000000
vt 0.296275 0.811779 0.000000
vt 0.226511 0.795087 0.000000
vt 0.153877 0.779226 0.000000
vt 0.078374 0.764197 0.000000
vt 0.000000 0.750000 0.000000
vt 0.000000 0.631793 0.000000
vt 0.045169 0.638240 0.000000
vt 0.091958 0.645547 0.000000
vt 0.140368 0.653713 0.000000
vt 0.190397 0.662739 0.000000
vt 0.242046 0.672624 0.000000
vt 0.295316 0.683368 0.000000
vt 0.350205 0.694973 0.000000
vt 0.404377 0.707007 0.000000
vt 0.455494 0.719041 0.000000
vt 0.503556 0.731075 0.000000
vt 0.548563 0.743110 0.000000
vt 0.590515 0.755144 0.000000
vt 0.629412 0.767178 0.000000
vt 0.665254 0.779212 0.000000
vt 0.665254 0.000000 0.000000
vt 1.000000 0.000000 0.000000
vt 1.000000 1.000000 0.000000
vt 0.784296 1.000000 0.000000
vt 0.756967 0.981477 0.000000
vt 0.724655 0.962788 0.000000
vt 0.687360 0.943933 0.000000
vt 0.645081 0.924911 0.000000
vt 0.597820 0.905723 0.000000
vt 0.545575 0.886369 0.000000
vt 0.488348 0.866848 0.000000
vt 0.427193 0.847660 0.000000
vt 0.363169 0.829303 0.000000
vt 0.296275 0.811779 0.000000
vt 0.226511 0.795087 0.000000
vt 0.153877 0.779226 0.000000
vt 0.078374 0.764197 0.000000
vt 0.000000 0.750000 0.000000
vt 0.000000 0.631793 0.000000
vt 0.045169 0.638240 0.000000
vt 0.091958 0.645547 0.000000
vt 0.140368 0.653713 0.000000
vt 0.190397 0.662739 0.000000
vt 0.242046 0.672624 0.000000
vt 0.295316 0.683368 0.000000
vt 0.350205 0.694973 0.000000
vt 0.404377 0.707007 0.000000
vt 0.455494 0.719041 0.000000
vt 0.503556 0.731075 0.000000
vt 0.548563 0.743110 0.000000
vt 0.590515 0.755144 0.000000
vt 0.629412 0.767178 0.000000
vt 0.665254 0.779212 0.000000
vt 0.665254 0.000000 0.000000
vt 1.000000 0.000000 0.000000
# 134 texture coords

g Text001
usemtl Material__25
f 1/1/1 2/2/2 35/36/3 
f 1/1/4 35/36/5 34/35/6 
f 2/2/7 3/3/8 36/37/9 
f 2/2/10 36/37/11 35/36/12 
f 3/3/13 4/4/14 37/38/15 
f 3/3/16 37/38/17 36/37/18 
f 4/4/19 5/5/20 38/39/21 
f 4/4/22 38/39/23 37/38/24 
f 5/5/25 6/6/26 39/40/27 
f 5/5/28 39/40/29 38/39/30 
f 6/6/31 7/7/32 40/41/33 
f 6/6/34 40/41/35 39/40/36 
f 7/7/37 8/8/38 41/42/39 
f 7/7/40 41/42/41 40/41/42 
f 8/8/43 9/9/44 42/43/45 
f 8/8/46 42/43/47 41/42/48 
f 9/9/49 10/10/50 43/44/51 
f 9/9/52 43/44/53 42/43/54 
f 10/10/55 11/11/56 44/45/57 
f 10/10/58 44/45/59 43/44/60 
f 11/11/61 12/12/62 45/46/63 
f 11/11/64 45/46/65 44/45/66 
f 12/12/67 13/13/68 46/47/69 
f 12/12/70 46/47/71 45/46/72 
f 13/13/73 14/14/74 47/48/75 
f 13/13/76 47/48/77 46/47/78 
f 14/14/79 15/15/80 48/49/81 
f 14/14/82 48/49/83 47/48/84 
f 15/15/85 16/16/86 49/50/87 
f 15/15/88 49/50/89 48/49/90 
f 16/16/91 17/17/92 50/51/93 
f 16/16/94 50/51/95 49/50/96 
f 17/17/97 18/18/98 51/52/99 
f 17/17/100 51/52/101 50/51/102 
f 18/18/103 19/19/104 52/53/105 
f 18/18/106 52/53/107 51/52/108 
f 19/19/109 20/20/110 53/54/111 
f 19/19/112 53/54/113 52/53/114 
f 20/20/115 21/21/116 54/55/117 
f 20/20/118 54/55/119 53/54/120 
f 21/21/121 22/22/122 55/56/123 
f 21/21/124 55/56/125 54/55/126 
f 22/22/127 23/23/128 56/57/129 
f 22/22/130 56/57/131 55/56/132 
f 23/23/133 24/24/134 57/58/135 
f 23/23/136 57/58/137 56/57/138 
f 24/24/139 25/25/140 58/59/141 
f 24/24/142 58/59/143 57/58/144 
f 25/25/145 26/26/146 59/60/147 
f 25/25/148 59/60/149 58/59/150 
f 26/26/151 27/27/152 60/61/153 
f 26/26/154 60/61/155 59/60/156 
f 27/27/157 28/28/158 61/62/159 
f 27/27/160 61/62/161 60/61/162 
f 28/28/163 29/29/164 62/63/165 
f 28/28/166 62/63/167 61/62/168 
f 29/29/169 30/30/170 63/64/171 
f 29/29/172 63/64/173 62/63/174 
f 30/30/175 31/31/176 64/65/177 
f 30/30/178 64/65/179 63/64/180 
f 31/31/181 32/32/182 65/66/183 
f 31/31/184 65/66/185 64/65/186 
f 32/32/187 33/33/188 66/67/189 
f 32/32/190 66/67/191 65/66/192 
f 33/33/193 1/34/194 34/68/195 
f 33/33/196 34/68/197 66/67/198 
f 16/84/199 18/86/200 17/85/201 
f 16/84/202 19/87/203 18/86/204 
f 16/84/205 20/88/206 19/87/207 
f 15/83/208 20/88/209 16/84/210 
f 15/83/211 21/89/212 20/88/213 
f 15/83/214 22/90/215 21/89/216 
f 14/82/217 22/90/218 15/83/219 
f 14/82/220 23/91/221 22/90/222 
f 14/82/223 24/92/224 23/91/225 
f 13/81/226 24/92/227 14/82/228 
f 13/81/229 25/93/230 24/92/231 
f 12/80/232 25/93/233 13/81/234 
f 12/80/235 26/94/236 25/93/237 
f 12/80/238 27/95/239 26/94/240 
f 11/79/241 27/95/242 12/80/243 
f 11/79/244 28/96/245 27/95/246 
f 10/78/247 28/96/248 11/79/249 
f 10/78/250 29/97/251 28/96/252 
f 10/78/253 30/98/254 29/97/255 
f 9/77/256 30/98/257 10/78/258 
f 9/77/259 31/99/260 30/98/261 
f 32/100/262 1/69/263 33/101/264 
f 31/99/265 1/69/266 32/100/267 
f 31/99/268 2/70/269 1/69/270 
f 31/99/271 3/71/272 2/70/273 
f 31/99/274 4/72/275 3/71/276 
f 31/99/277 5/73/278 4/72/279 
f 31/99/280 6/74/281 5/73/282 
f 31/99/283 7/75/284 6/74/285 
f 31/99/286 8/76/287 7/75/288 
f 9/77/289 8/76/290 31/99/291 
f 49/117/292 50/118/293 51/119/294 
f 49/117/295 51/119/296 52/120/297 
f 49/117/298 52/120/299 53/121/300 
f 48/116/301 49/117/302 53/121/303 
f 48/116/304 53/121/305 54/122/306 
f 48/116/307 54/122/308 55/123/309 
f 47/115/310 48/116/311 55/123/312 
f 47/115/313 55/123/314 56/124/315 
f 47/115/316 56/124/317 57/125/318 
f 46/114/319 47/115/320 57/125/321 
f 46/114/322 57/125/323 58/126/324 
f 45/113/325 46/114/326 58/126/327 
f 45/113/328 58/126/329 59/127/330 
f 45/113/331 59/127/332 60/128/333 
f 44/112/334 45/113/335 60/128/336 
f 44/112/337 60/128/338 61/129/339 
f 43/111/340 44/112/341 61/129/342 
f 43/111/343 61/129/344 62/130/345 
f 43/111/346 62/130/347 63/131/348 
f 42/110/349 43/111/350 63/131/351 
f 42/110/352 63/131/353 64/132/354 
f 65/133/355 66/134/356 34/102/357 
f 64/132/358 65/133/359 34/102/360 
f 64/132/361 34/102/362 35/103/363 
f 64/132/364 35/103/365 36/104/366 
f 64/132/367 36/104/368 37/105/369 
f 64/132/370 37/105/371 38/106/372 
f 64/132/373 38/106/374 39/107/375 
f 64/132/376 39/107/377 40/108/378 
f 64/132/379 40/108/380 41/109/381 
f 42/110/382 64/132/383 41/109/384 
# 128 faces

